{
	"asset":{
		"generator":"Khronos glTF Blender I/O v5.0.21",
		"version":"2.0"
	},
	"scene":0,
	"scenes":[
		{
			"name":"Scene",
			"nodes":[
				0
			]
		}
	],
	"nodes":[
		{
			"mesh":0,
			"name":"6L.004",
			"scale":[
				0.38573160767555237,
				0.38573160767555237,
				0.38573160767555237
			]
		}
	],
	"meshes":[
		{
			"name":"Cube.186",
			"primitives":[
				{
					"attributes":{
						"POSITION":0,
						"NORMAL":1,
						"TEXCOORD_0":2
					},
					"indices":3
				}
			]
		}
	],
	"accessors":[
		{
			"bufferView":0,
			"componentType":5126,
			"count":45632,
			"max":[
				6.805268287658691,
				16.662372589111328,
				7.993638038635254
			],
			"min":[
				-7.643587589263916,
				-0.6153936386108398,
				-9.220622062683105
			],
			"type":"VEC3"
		},
		{
			"bufferView":1,
			"componentType":5126,
			"count":45632,
			"type":"VEC3"
		},
		{
			"bufferView":2,
			"componentType":5126,
			"count":45632,
			"type":"VEC2"
		},
		{
			"bufferView":3,
			"componentType":5123,
			"count":77844,
			"type":"SCALAR"
		}
	],
	"bufferViews":[
		{
			"buffer":0,
			"byteLength":547584,
			"byteOffset":0,
			"target":34962
		},
		{
			"buffer":0,
			"byteLength":547584,
			"byteOffset":547584,
			"target":34962
		},
		{
			"buffer":0,
			"byteLength":365056,
			"byteOffset":1095168,
			"target":34962
		},
		{
			"buffer":0,
			"byteLength":155688,
			"byteOffset":1460224,
			"target":34963
		}
	],
	"buffers":[
		{
			"byteLength":1615912,
			"uri":"Monstera.bin"
		}
	]
}
